<svg data-v-0dd9719b="" version="1.0" xmlns="http://www.w3.org/2000/svg" xmlns:xlink="http://www.w3.org/1999/xlink" width="100%" height="100%" viewBox="0 0 340.000000 250.000000" preserveAspectRatio="xMidYMid meet" color-interpolation-filters="sRGB" style="margin: auto;"> <rect data-v-0dd9719b="" x="0" y="0" width="100%" height="100%" fill="#fff" fill-opacity="1" class="background"></rect> <rect data-v-0dd9719b="" x="0" y="0" width="100%" height="100%" fill="url(#watermark)" fill-opacity="1" class="watermarklayer"></rect> <g data-v-0dd9719b="" fill="#333" class="icon-text-wrapper icon-svg-group iconsvg" transform="translate(49.43000030517578,97.64146614074707)"><g class="iconsvg-imagesvg" transform="translate(0,0)"><g><rect fill="#333" fill-opacity="0" stroke-width="2" x="0" y="0" width="60" height="54.71706716519995" class="image-rect"></rect> <svg x="0" y="0" width="60" height="54.71706716519995" filtersec="colorsb6209538857" class="image-svg-svg primary" style="overflow: visible;"><svg xmlns="http://www.w3.org/2000/svg" viewBox="0.007376670837402344 0.017479896545410156 109.63544464111328 99.98246765136719"><g fill-rule="evenodd"><path d="M46.12 21.84c-2.94-8.25-7.27-15.43-1.06-17.59C53.49 1.3 60.41-3 62.64 3.15c3 8.39 7.23 15.37 1.06 17.6L52.39 24.8c-10.91 3.9-8.55 23-5.62 31.19C54.16 76.67 23 87.73 15.59 67.14A16.58 16.58 0 0 1 25.61 46c3.09 0 23.98-14.41 20.51-24.16z" fill="#104e70"></path><path d="M83.51 43C82 51 84.92 71.28 93.82 73c8.39 1.62 17 1.62 15.69 8-1.83 9.17-1.67 16.89-8 15.7-8.37-1.59-16.91-1.65-15.69-8l2.28-11.82c2.18-11.39-15.46-19.05-24-20.7A16.53 16.53 0 0 1 51 36.77C55.1 15.24 87.68 21.51 83.51 43z" fill="#2491eb"></path><path d="M25.67 89.11c-6.16 7.08-10 13.8-14.81 9.58-7-6.13-13.74-9.91-9.57-14.79 4.8-5.62 9.76-14 14.8-9.58l9.08 7.9c8.74 7.57 24.23-3.87 29.9-10.44a16.58 16.58 0 0 1 23.38-1.65c16.57 14.44-5.21 39.37-21.72 25 2.5.04-23.48-14.74-31.06-6.02z" fill="#85c4f5"></path></g></svg></svg> <!----></g></g> <g transform="translate(67,11.463533401489258)"><g data-gra="path-name" fill-rule="" class="tp-name iconsvg-namesvg"><g transform="scale(1)"><g><path d="M15.47-31.09L15.47-10.74Q15.47-8.14 14.83-6.08 14.19-4.01 12.94-2.59 11.69-1.17 9.87-0.41 8.05 0.35 5.68 0.35L5.68 0.35Q3.58 0.35 1.3-0.26L1.3-0.26Q1.35-0.89 1.41-1.51 1.48-2.13 1.54-2.73L1.54-2.73Q1.58-3.1 1.81-3.33 2.04-3.56 2.5-3.56L2.5-3.56Q2.89-3.56 3.54-3.36 4.19-3.17 5.27-3.17L5.27-3.17Q6.7-3.17 7.82-3.6 8.94-4.04 9.71-4.95 10.48-5.86 10.88-7.28 11.28-8.7 11.28-10.65L11.28-10.65 11.28-31.09 15.47-31.09ZM28.03-31.09L28.03 0 23.82 0 23.82-31.09 28.03-31.09ZM38.53-31.09L38.53-31.09Q39.1-31.09 39.37-30.95 39.64-30.81 39.99-30.38L39.99-30.38 58-6.94Q57.93-7.51 57.91-8.04 57.89-8.57 57.89-9.07L57.89-9.07 57.89-31.09 61.58-31.09 61.58 0 59.45 0Q58.95 0 58.61-0.17 58.28-0.35 57.95-0.76L57.95-0.76 39.97-24.17Q40.01-23.63 40.03-23.11 40.05-22.59 40.05-22.15L40.05-22.15 40.05 0 36.36 0 36.36-31.09 38.53-31.09ZM83.04-3.06L83.04-3.06Q84.29-3.06 85.35-3.18 86.4-3.3 87.33-3.54 88.26-3.78 89.09-4.11 89.91-4.45 90.74-4.88L90.74-4.88 90.74-11.74 85.92-11.74Q85.51-11.74 85.26-11.98 85.01-12.22 85.01-12.56L85.01-12.56 85.01-14.95 94.56-14.95 94.56-3.02Q93.38-2.17 92.12-1.54 90.85-0.91 89.4-0.49 87.96-0.07 86.31 0.14 84.66 0.35 82.73 0.35L82.73 0.35Q79.35 0.35 76.53-0.81 73.71-1.97 71.67-4.07 69.63-6.16 68.49-9.09 67.35-12.02 67.35-15.54L67.35-15.54Q67.35-19.09 68.47-22.02 69.58-24.95 71.66-27.05 73.73-29.14 76.67-30.29 79.61-31.44 83.25-31.44L83.25-31.44Q85.1-31.44 86.68-31.17 88.26-30.9 89.62-30.39 90.98-29.88 92.13-29.15 93.28-28.42 94.27-27.51L94.27-27.51 93.08-25.6Q92.71-25.02 92.13-25.02L92.13-25.02Q91.78-25.02 91.37-25.26L91.37-25.26Q90.82-25.56 90.15-25.99 89.48-26.43 88.51-26.83 87.55-27.23 86.24-27.51 84.92-27.79 83.12-27.79L83.12-27.79Q80.5-27.79 78.37-26.94 76.24-26.08 74.75-24.49 73.25-22.89 72.45-20.62 71.64-18.36 71.64-15.54L71.64-15.54Q71.64-12.58 72.48-10.27 73.31-7.96 74.83-6.36 76.35-4.75 78.44-3.91 80.52-3.06 83.04-3.06ZM107.25 0L97.55-31.09 101.04-31.09Q101.61-31.09 101.98-30.81 102.35-30.53 102.48-30.09L102.48-30.09 108.9-8.48Q109.07-7.9 109.21-7.23 109.35-6.55 109.48-5.81L109.48-5.81Q109.64-6.55 109.79-7.24 109.94-7.92 110.14-8.48L110.14-8.48 117.45-30.09Q117.58-30.46 117.96-30.78 118.34-31.09 118.88-31.09L118.88-31.09 120.09-31.09Q120.66-31.09 121.02-30.81 121.37-30.53 121.53-30.09L121.53-30.09 128.79-8.48Q129.19-7.36 129.49-5.9L129.49-5.9Q129.62-6.62 129.73-7.27 129.84-7.92 130.01-8.48L130.01-8.48 136.45-30.09Q136.56-30.48 136.94-30.79 137.32-31.09 137.86-31.09L137.86-31.09 141.14-31.09 131.44 0 127.67 0 119.79-23.72Q119.55-24.39 119.36-25.28L119.36-25.28Q119.25-24.84 119.15-24.44 119.05-24.04 118.94-23.72L118.94-23.72 111.02 0 107.25 0ZM145.24-31.09L164.4-31.09 164.4-27.66 149.47-27.66 149.47-17.34 161.56-17.34 161.56-14.04 149.47-14.04 149.47-3.43 164.4-3.43 164.4 0 145.24 0 145.24-31.09ZM175.44-31.09L175.44 0 171.23 0 171.23-31.09 175.44-31.09Z" transform="translate(-1.2999999523162842, 31.440000534057617)"></path></g> <!----> <!----> <!----> <!----> <!----> <!----> <!----></g></g> <!----></g></g><defs v-gra="od"></defs></svg>